<?xml version="1.0" encoding="UTF-8" standalone="no"?>
<!DOCTYPE svg PUBLIC "-//W3C//DTD SVG 1.1//EN" "http://www.w3.org/Graphics/SVG/1.1/DTD/svg11.dtd">
<!-- Создано Microsoft Visio, экспорт SVG SequenceOfTesting.svg Page-1 -->
<svg xmlns="http://www.w3.org/2000/svg" xmlns:xlink="http://www.w3.org/1999/xlink" xmlns:ev="http://www.w3.org/2001/xml-events"
		xmlns:v="http://schemas.microsoft.com/visio/2003/SVGExtensions/" width="9.44882in" height="1.81102in"
		viewBox="0 0 680.315 130.394" xml:space="preserve" color-interpolation-filters="sRGB" class="st6">
	<v:documentProperties v:langID="1049" v:metric="true" v:viewMarkup="false">
		<v:userDefs>
			<v:ud v:nameU="msvSubprocessMaster" v:prompt="" v:val="VT4(Rectangle)"/>
			<v:ud v:nameU="msvNoAutoConnect" v:val="VT0(1):26"/>
		</v:userDefs>
	</v:documentProperties>

	<style type="text/css">
	<![CDATA[
		.st1 {fill:#4672c4;stroke:#c7c8c8;stroke-width:0.25}
		.st2 {fill:#feffff;font-family:Calibri;font-size:2.50001em}
		.st3 {fill:#c00000;stroke:#c00000;stroke-width:0.75}
		.st4 {fill:#feffff;font-family:Calibri;font-size:0.833336em}
		.st5 {fill:#feffff;font-family:Calibri;font-size:1.5em}
		.st6 {fill:none;fill-rule:evenodd;font-size:12px;overflow:visible;stroke-linecap:square;stroke-miterlimit:3}
	]]>
	</style>

	<g v:mID="0" v:index="1" v:groupContext="foregroundPage">
		<v:userDefs>
			<v:ud v:nameU="msvThemeOrder" v:val="VT0(0):26"/>
		</v:userDefs>
		<title>Страница-1</title>
		<v:pageProperties v:drawingScale="0.0393701" v:pageScale="0.0393701" v:drawingUnits="24" v:shadowOffsetX="8.50394"
				v:shadowOffsetY="-8.50394"/>
		<g id="shape1-1" v:mID="1" v:groupContext="shape" transform="translate(18.25,-7.82204)">
			<title>Круг</title>
			<desc>Client</desc>
			<v:userDefs>
				<v:ud v:nameU="visVersion" v:val="VT0(15):26"/>
			</v:userDefs>
			<v:textBlock v:margins="rect(4,4,4,4)" v:tabSpace="42.5197"/>
			<v:textRect cx="56.6929" cy="73.7008" width="99.22" height="85.0394"/>
			<path d="M0 73.7 A56.6929 56.6929 0 0 1 113.39 73.7 A56.6929 56.6929 0 1 1 0 73.7 Z" class="st1"/>
			<text x="21.44" y="82.7" class="st2" v:langID="1033"><v:paragraph v:horizAlign="1"/><v:tabList/>Client</text>		</g>
		<g id="shape2-4" v:mID="2" v:groupContext="shape" transform="translate(281.872,-7.82204)">
			<title>Круг.2</title>
			<desc>Server</desc>
			<v:userDefs>
				<v:ud v:nameU="visVersion" v:val="VT0(15):26"/>
			</v:userDefs>
			<v:textBlock v:margins="rect(4,4,4,4)" v:tabSpace="42.5197"/>
			<v:textRect cx="56.6929" cy="73.7008" width="99.22" height="85.0394"/>
			<path d="M0 73.7 A56.6929 56.6929 0 0 1 113.39 73.7 A56.6929 56.6929 0 1 1 0 73.7 Z" class="st1"/>
			<text x="17.64" y="82.7" class="st2" v:langID="1033"><v:paragraph v:horizAlign="1"/><v:tabList/>Server</text>		</g>
		<g id="shape4-7" v:mID="4" v:groupContext="shape" transform="translate(256.615,183.02) rotate(180)">
			<title>Современная стрелка</title>
			<desc>1</desc>
			<v:userDefs>
				<v:ud v:nameU="CtrlAngle" v:prompt="" v:val="VT0(0.78539816339745):32"/>
				<v:ud v:nameU="visVersion" v:prompt="" v:val="VT0(15):26"/>
				<v:ud v:nameU="CtrlAngle" v:prompt="" v:val="VT0(0.50709849480743):32"/>
			</v:userDefs>
			<v:textBlock v:margins="rect(4,4,4,4)" v:tabSpace="42.5197"/>
			<v:textRect cx="55.2756" cy="130.394" width="110.56" height="0" transform="rotate(180)"/>
			<path d="M0 130.39 L25.51 116.22 L29.88 124.09 L26.63 125.89 L110.55 125.89 L110.55 134.89 L26.63 134.89 L29.88 136.7
						 L25.51 144.57 L0 130.39 Z" class="st3"/>
			<text x="-57.81" y="-127.39" transform="rotate(180)" class="st4" v:langID="1033"><v:paragraph v:horizAlign="1"/><v:tabList/>1</text>		</g>
		<g id="shape7-10" v:mID="7" v:groupContext="shape" transform="translate(548.329,-7.82204)">
			<title>Круг.7</title>
			<desc>Database</desc>
			<v:userDefs>
				<v:ud v:nameU="visVersion" v:val="VT0(15):26"/>
			</v:userDefs>
			<v:textBlock v:margins="rect(4,4,4,4)" v:tabSpace="42.5197"/>
			<v:textRect cx="56.6929" cy="73.7008" width="99.22" height="85.0394"/>
			<path d="M0 73.7 A56.6929 56.6929 0 0 1 113.39 73.7 A56.6929 56.6929 0 1 1 0 73.7 Z" class="st1"/>
			<text x="22.48" y="79.1" class="st5" v:langID="1033"><v:paragraph v:horizAlign="1"/><v:tabList/>Database</text>		</g>
		<g id="shape9-13" v:mID="9" v:groupContext="shape" transform="translate(145.809,-48.4992)">
			<title>Современная стрелка.9</title>
			<desc>4</desc>
			<v:userDefs>
				<v:ud v:nameU="CtrlAngle" v:prompt="" v:val="VT0(0.78539816339745):32"/>
				<v:ud v:nameU="visVersion" v:prompt="" v:val="VT0(15):26"/>
				<v:ud v:nameU="CtrlAngle" v:prompt="" v:val="VT0(0.50709849480743):32"/>
			</v:userDefs>
			<v:textBlock v:margins="rect(4,4,4,4)" v:tabSpace="42.5197"/>
			<v:textRect cx="55.4031" cy="130.394" width="110.81" height="0"/>
			<path d="M0 130.39 L25.51 116.22 L29.88 124.09 L26.63 125.89 L110.81 125.89 L110.81 134.89 L26.63 134.89 L29.88 136.7
						 L25.51 144.57 L0 130.39 Z" class="st3"/>
			<text x="52.87" y="133.39" class="st4" v:langID="1033"><v:paragraph v:horizAlign="1"/><v:tabList/>4</text>		</g>
		<g id="shape10-16" v:mID="10" v:groupContext="shape" transform="translate(524.362,181.639) rotate(180)">
			<title>Современная стрелка.10</title>
			<desc>2</desc>
			<v:userDefs>
				<v:ud v:nameU="CtrlAngle" v:prompt="" v:val="VT0(0.78539816339745):32"/>
				<v:ud v:nameU="visVersion" v:prompt="" v:val="VT0(15):26"/>
				<v:ud v:nameU="CtrlAngle" v:prompt="" v:val="VT0(0.50709849480743):32"/>
			</v:userDefs>
			<v:textBlock v:margins="rect(4,4,4,4)" v:tabSpace="42.5197"/>
			<v:textRect cx="55.2756" cy="130.394" width="110.56" height="0" transform="rotate(180)"/>
			<path d="M0 130.39 L25.51 116.22 L29.88 124.09 L26.63 125.89 L110.55 125.89 L110.55 134.89 L26.63 134.89 L29.88 136.7
						 L25.51 144.57 L0 130.39 Z" class="st3"/>
			<text x="-57.81" y="-127.39" transform="rotate(180)" class="st4" v:langID="1033"><v:paragraph v:horizAlign="1"/><v:tabList/>2</text>		</g>
		<g id="shape11-19" v:mID="11" v:groupContext="shape" transform="translate(413.556,-49.8811)">
			<title>Современная стрелка.11</title>
			<desc>3</desc>
			<v:userDefs>
				<v:ud v:nameU="CtrlAngle" v:prompt="" v:val="VT0(0.78539816339745):32"/>
				<v:ud v:nameU="visVersion" v:prompt="" v:val="VT0(15):26"/>
				<v:ud v:nameU="CtrlAngle" v:prompt="" v:val="VT0(0.50709849480743):32"/>
			</v:userDefs>
			<v:textBlock v:margins="rect(4,4,4,4)" v:tabSpace="42.5197"/>
			<v:textRect cx="55.4031" cy="130.394" width="110.81" height="0"/>
			<path d="M0 130.39 L25.51 116.22 L29.88 124.09 L26.63 125.89 L110.81 125.89 L110.81 134.89 L26.63 134.89 L29.88 136.7
						 L25.51 144.57 L0 130.39 Z" class="st3"/>
			<text x="52.87" y="133.39" class="st4" v:langID="1033"><v:paragraph v:horizAlign="1"/><v:tabList/>3</text>		</g>
	</g>
</svg>
