<?xml version="1.0" encoding="UTF-8" standalone="no"?>
<!DOCTYPE svg PUBLIC "-//W3C//DTD SVG 1.1//EN" "http://www.w3.org/Graphics/SVG/1.1/DTD/svg11.dtd">
<!-- Создано Microsoft Visio, экспорт SVG ServerTestModules.svg Page-1 -->
<svg xmlns="http://www.w3.org/2000/svg" xmlns:xlink="http://www.w3.org/1999/xlink" xmlns:ev="http://www.w3.org/2001/xml-events"
		xmlns:v="http://schemas.microsoft.com/visio/2003/SVGExtensions/" width="7.75591in" height="4.13386in"
		viewBox="0 0 558.425 297.638" xml:space="preserve" color-interpolation-filters="sRGB" class="st6">
	<v:documentProperties v:langID="1049" v:metric="true" v:viewMarkup="false">
		<v:userDefs>
			<v:ud v:nameU="msvSubprocessMaster" v:prompt="" v:val="VT4(Rectangle)"/>
			<v:ud v:nameU="msvNoAutoConnect" v:val="VT0(1):26"/>
		</v:userDefs>
	</v:documentProperties>

	<style type="text/css">
	<![CDATA[
		.st1 {fill:#4672c4;stroke:#c7c8c8;stroke-width:0.25}
		.st2 {fill:#feffff;font-family:Calibri;font-size:2.50001em}
		.st3 {fill:#feffff;font-family:Calibri;font-size:1.5em}
		.st4 {fill:#c00000;stroke:#c00000;stroke-width:0.25}
		.st5 {fill:#3c63ac;stroke:#30518f;stroke-width:0.75}
		.st6 {fill:none;fill-rule:evenodd;font-size:12px;overflow:visible;stroke-linecap:square;stroke-miterlimit:3}
	]]>
	</style>

	<g v:mID="0" v:index="1" v:groupContext="foregroundPage">
		<v:userDefs>
			<v:ud v:nameU="msvThemeOrder" v:val="VT0(0):26"/>
		</v:userDefs>
		<title>Страница-1</title>
		<v:pageProperties v:drawingScale="0.0393701" v:pageScale="0.0393701" v:drawingUnits="24" v:shadowOffsetX="8.50394"
				v:shadowOffsetY="-8.50394"/>
		<g id="shape1-1" v:mID="1" v:groupContext="shape" transform="translate(28.3465,-161.575)">
			<title>Круг</title>
			<desc>Server</desc>
			<v:userDefs>
				<v:ud v:nameU="visVersion" v:val="VT0(15):26"/>
			</v:userDefs>
			<v:textBlock v:margins="rect(4,4,4,4)" v:tabSpace="42.5197"/>
			<v:textRect cx="56.6929" cy="240.945" width="99.22" height="85.0394"/>
			<path d="M0 240.94 A56.6929 56.6929 0 0 1 113.39 240.94 A56.6929 56.6929 0 1 1 0 240.94 Z" class="st1"/>
			<text x="17.64" y="249.95" class="st2" v:langID="1033"><v:paragraph v:horizAlign="1"/><v:tabList/>Server</text>		</g>
		<g id="shape2-4" v:mID="2" v:groupContext="shape" transform="translate(223.937,-19.8425)">
			<title>Круг.2</title>
			<desc>Database</desc>
			<v:userDefs>
				<v:ud v:nameU="visVersion" v:val="VT0(15):26"/>
			</v:userDefs>
			<v:textBlock v:margins="rect(4,4,4,4)" v:tabSpace="42.5197"/>
			<v:textRect cx="56.6929" cy="240.945" width="99.22" height="85.0394"/>
			<path d="M0 240.94 A56.6929 56.6929 0 0 1 113.39 240.94 A56.6929 56.6929 0 1 1 0 240.94 Z" class="st1"/>
			<text x="22.48" y="246.34" class="st3" v:langID="1033"><v:paragraph v:horizAlign="1"/><v:tabList/>Database</text>		</g>
		<g id="shape3-7" v:mID="3" v:groupContext="shape" transform="translate(419.528,-161.575)">
			<title>Круг.3</title>
			<desc>Client</desc>
			<v:userDefs>
				<v:ud v:nameU="visVersion" v:val="VT0(15):26"/>
			</v:userDefs>
			<v:textBlock v:margins="rect(4,4,4,4)" v:tabSpace="42.5197"/>
			<v:textRect cx="56.6929" cy="240.945" width="99.22" height="85.0394"/>
			<path d="M0 240.94 A56.6929 56.6929 0 0 1 113.39 240.94 A56.6929 56.6929 0 1 1 0 240.94 Z" class="st1"/>
			<text x="21.44" y="249.95" class="st2" v:langID="1033"><v:paragraph v:horizAlign="1"/><v:tabList/>Client</text>		</g>
		<g id="shape4-10" v:mID="4" v:groupContext="shape" transform="translate(141.732,-214.724)">
			<title>Прямоугольник</title>
			<v:userDefs>
				<v:ud v:nameU="visVersion" v:val="VT0(15):26"/>
			</v:userDefs>
			<rect x="0" y="290.551" width="277.795" height="7.08661" class="st4"/>
		</g>
		<g id="shape5-12" v:mID="5" v:groupContext="shape" transform="translate(574.724,75.8268) rotate(90)">
			<title>Прямоугольник.5</title>
			<v:userDefs>
				<v:ud v:nameU="visVersion" v:val="VT0(15):26"/>
			</v:userDefs>
			<rect x="0" y="290.551" width="88.5827" height="7.08661" class="st4"/>
		</g>
		<g id="shape8-14" v:mID="8" v:groupContext="shape" transform="translate(208.346,354.331) rotate(180)">
			<title>Современная стрелка</title>
			<v:userDefs>
				<v:ud v:nameU="CtrlAngle" v:prompt="" v:val="VT0(0.78539816339745):32"/>
				<v:ud v:nameU="visVersion" v:prompt="" v:val="VT0(15):26"/>
				<v:ud v:nameU="CtrlAngle" v:prompt="" v:val="VT0(0.44446772747479):32"/>
			</v:userDefs>
			<path d="M0 297.64 L28.35 284.14 L32.22 292.26 L30.38 293.14 L62.36 293.14 L62.36 302.14 L30.38 302.14 L32.22 303.01
						 L28.35 311.14 L0 297.64 Z" class="st5"/>
		</g>
		<g id="shape9-16" v:mID="9" v:groupContext="shape" transform="translate(420.945,354.331) rotate(180)">
			<title>Современная стрелка.9</title>
			<v:userDefs>
				<v:ud v:nameU="CtrlAngle" v:prompt="" v:val="VT0(0.78539816339745):32"/>
				<v:ud v:nameU="visVersion" v:prompt="" v:val="VT0(15):26"/>
				<v:ud v:nameU="CtrlAngle" v:prompt="" v:val="VT0(0.44446772747479):32"/>
			</v:userDefs>
			<path d="M0 297.64 L28.35 284.14 L32.22 292.26 L30.38 293.14 L62.36 293.14 L62.36 302.14 L30.38 302.14 L32.22 303.01
						 L28.35 311.14 L0 297.64 Z" class="st5"/>
		</g>
		<g id="shape10-18" v:mID="10" v:groupContext="shape" transform="translate(598.11,102.047) rotate(90)">
			<title>Современная стрелка.10</title>
			<v:userDefs>
				<v:ud v:nameU="CtrlAngle" v:prompt="" v:val="VT0(0.78539816339745):32"/>
				<v:ud v:nameU="visVersion" v:prompt="" v:val="VT0(15):26"/>
				<v:ud v:nameU="CtrlAngle" v:prompt="" v:val="VT0(0.44446772747479):32"/>
			</v:userDefs>
			<path d="M0 297.64 L28.35 284.14 L32.22 292.26 L30.38 293.14 L56.69 293.14 L56.69 302.14 L30.38 302.14 L32.22 303.01
						 L28.35 311.14 L0 297.64 Z" class="st5"/>
		</g>
		<g id="shape12-20" v:mID="12" v:groupContext="shape" transform="translate(-36.8504,159.173) rotate(-90)">
			<title>Современная стрелка.12</title>
			<v:userDefs>
				<v:ud v:nameU="CtrlAngle" v:prompt="" v:val="VT0(0.78539816339745):32"/>
				<v:ud v:nameU="visVersion" v:prompt="" v:val="VT0(15):26"/>
				<v:ud v:nameU="CtrlAngle" v:prompt="" v:val="VT0(0.44446772747479):32"/>
			</v:userDefs>
			<path d="M0 297.64 L28.35 284.14 L32.22 292.26 L30.38 293.14 L57.13 293.14 L57.13 302.14 L30.38 302.14 L32.22 303.01
						 L28.35 311.14 L0 297.64 Z" class="st5"/>
		</g>
		<g id="shape13-22" v:mID="13" v:groupContext="shape" transform="translate(142.441,-195.591)">
			<title>Современная стрелка.13</title>
			<v:userDefs>
				<v:ud v:nameU="CtrlAngle" v:prompt="" v:val="VT0(0.78539816339745):32"/>
				<v:ud v:nameU="visVersion" v:prompt="" v:val="VT0(15):26"/>
				<v:ud v:nameU="CtrlAngle" v:prompt="" v:val="VT0(0.44446772747479):32"/>
			</v:userDefs>
			<path d="M0 297.64 L28.35 284.14 L32.22 292.26 L30.38 293.14 L60.24 293.14 L60.24 302.14 L30.38 302.14 L32.22 303.01
						 L28.35 311.14 L0 297.64 Z" class="st5"/>
		</g>
		<g id="shape14-24" v:mID="14" v:groupContext="shape" transform="translate(355.039,-197.008)">
			<title>Современная стрелка.14</title>
			<v:userDefs>
				<v:ud v:nameU="CtrlAngle" v:prompt="" v:val="VT0(0.78539816339745):32"/>
				<v:ud v:nameU="visVersion" v:prompt="" v:val="VT0(15):26"/>
				<v:ud v:nameU="CtrlAngle" v:prompt="" v:val="VT0(0.44446772747479):32"/>
			</v:userDefs>
			<path d="M0 297.64 L28.35 284.14 L32.22 292.26 L30.38 293.14 L60.24 293.14 L60.24 302.14 L30.38 302.14 L32.22 303.01
						 L28.35 311.14 L0 297.64 Z" class="st5"/>
		</g>
	</g>
</svg>
